<?xml version="1.0" encoding="UTF-8"?>
<svg version="1.1" xmlns="http://www.w3.org/2000/svg" width="1024" height="1024">
<path d="M0 0 C96.80123342 -1.57560502 192.79369389 33.41630021 273.02734375 102.125 C273.76654053 102.7751709 274.5057373 103.4253418 275.26733398 104.09521484 C281.4060177 109.55195801 287.30861004 115.22000032 293.11401367 121.02636719 C294.58690347 122.4970641 296.0676464 123.95953534 297.54882812 125.421875 C303.10274101 130.94391696 308.26292643 136.63117517 313.13720703 142.76733398 C314.80883515 144.85244284 316.53539095 146.84262931 318.33984375 148.8125 C345.98236202 180.21287214 366.95372438 219.39610734 382.02734375 258.125 C382.35283203 258.94871094 382.67832031 259.77242188 383.01367188 260.62109375 C388.22116664 273.86269839 392.30936441 287.39690934 396.02734375 301.125 C396.29434082 302.10678223 396.56133789 303.08856445 396.83642578 304.10009766 C401.68105815 322.22772207 404.5886424 340.54847871 407.02734375 359.125 C407.16156738 360.10484863 407.29579102 361.08469727 407.43408203 362.09423828 C416.80395253 433.03377823 402.99315114 508.98556763 373.15332031 573.67919922 C372.10980336 575.94588457 371.09246519 578.22233178 370.08203125 580.50390625 C358.62440131 606.03394061 343.28659055 630.13849627 326.02734375 652.125 C325.17220516 653.24535257 324.31809743 654.36649248 323.46484375 655.48828125 C317.96523505 662.66588715 312.16363279 669.42476788 305.94921875 675.9921875 C303.80693984 678.25985918 301.75136679 680.58621014 299.71484375 682.94921875 C295.75009424 687.50358656 291.54803578 691.79590085 287.27734375 696.0625 C286.08927124 697.25045166 286.08927124 697.25045166 284.87719727 698.46240234 C279.91707127 703.37445039 274.89265233 707.96195536 269.390625 712.26171875 C267.04896483 714.1079533 264.85343836 716.05177033 262.65234375 718.0625 C185.40786348 787.05494297 77.86476972 814.50994144 -25.92382812 809.88183594 C-34.65040341 809.33273666 -43.3168113 808.3590796 -51.97265625 807.125 C-52.96861816 806.98578125 -53.96458008 806.8465625 -54.99072266 806.703125 C-61.69956264 805.72975174 -68.33426599 804.49431555 -74.97265625 803.125 C-76.61476074 802.79338867 -76.61476074 802.79338867 -78.29003906 802.45507812 C-138.8363454 789.9981018 -196.54601999 763.59912757 -244.97265625 725.125 C-245.79378906 724.485625 -246.61492187 723.84625 -247.4609375 723.1875 C-249.99253787 721.19868138 -252.48604521 719.16979028 -254.97265625 717.125 C-255.96394531 716.320625 -256.95523438 715.51625 -257.9765625 714.6875 C-267.08596367 707.13059496 -275.46845686 698.84493212 -283.84765625 690.5 C-284.42933563 689.92349701 -285.01101501 689.34699402 -285.61032104 688.75302124 C-292.16674552 682.2425954 -298.40313496 675.67409335 -304.1418457 668.42114258 C-305.79056941 666.35336735 -307.49939606 664.38677558 -309.28515625 662.4375 C-320.48005186 649.70202243 -329.7998233 635.34071741 -338.97265625 621.125 C-339.39111816 620.47772949 -339.80958008 619.83045898 -340.24072266 619.16357422 C-395.44317449 532.85440918 -412.98328043 423.41545298 -391.20703125 316.61767578 C-378.71430264 261.43380292 -355.14719759 207.76738242 -320.37353516 162.93896484 C-319.0513001 161.22683405 -317.74884292 159.50177721 -316.453125 157.76953125 C-308.27162413 146.88004566 -299.51091302 136.3386199 -289.7109375 126.86328125 C-287.95672767 125.10907142 -286.37707596 123.27678242 -284.78515625 121.375 C-280.14519498 115.98289889 -274.8202937 111.31011389 -269.54785156 106.55175781 C-268.15690541 105.29188656 -266.77862053 104.01806719 -265.40234375 102.7421875 C-259.11721998 96.95489531 -252.48343206 91.69239054 -245.72216797 86.48046875 C-244.07853167 85.20702907 -242.44769954 83.91910392 -240.8203125 82.625 C-227.32148784 72.00297404 -212.87225122 62.65633116 -197.97265625 54.125 C-197.19535156 53.67688965 -196.41804687 53.2287793 -195.6171875 52.76708984 C-135.41067623 18.288361 -68.98397892 2.17058734 0 0 Z " fill="#020202" transform="translate(504.97265625,103.875)"/>
<path d="M0 0 C96.80123342 -1.57560502 192.79369389 33.41630021 273.02734375 102.125 C273.76654053 102.7751709 274.5057373 103.4253418 275.26733398 104.09521484 C281.4060177 109.55195801 287.30861004 115.22000032 293.11401367 121.02636719 C294.58690347 122.4970641 296.0676464 123.95953534 297.54882812 125.421875 C303.10274101 130.94391696 308.26292643 136.63117517 313.13720703 142.76733398 C314.80883515 144.85244284 316.53539095 146.84262931 318.33984375 148.8125 C345.98236202 180.21287214 366.95372438 219.39610734 382.02734375 258.125 C382.35283203 258.94871094 382.67832031 259.77242188 383.01367188 260.62109375 C388.22116664 273.86269839 392.30936441 287.39690934 396.02734375 301.125 C396.29434082 302.10678223 396.56133789 303.08856445 396.83642578 304.10009766 C401.68105815 322.22772207 404.5886424 340.54847871 407.02734375 359.125 C407.16156738 360.10484863 407.29579102 361.08469727 407.43408203 362.09423828 C416.80395253 433.03377823 402.99315114 508.98556763 373.15332031 573.67919922 C372.10980336 575.94588457 371.09246519 578.22233178 370.08203125 580.50390625 C358.62440131 606.03394061 343.28659055 630.13849627 326.02734375 652.125 C325.17220516 653.24535257 324.31809743 654.36649248 323.46484375 655.48828125 C317.96523505 662.66588715 312.16363279 669.42476788 305.94921875 675.9921875 C303.80693984 678.25985918 301.75136679 680.58621014 299.71484375 682.94921875 C295.75009424 687.50358656 291.54803578 691.79590085 287.27734375 696.0625 C286.08927124 697.25045166 286.08927124 697.25045166 284.87719727 698.46240234 C279.91707127 703.37445039 274.89265233 707.96195536 269.390625 712.26171875 C267.04896483 714.1079533 264.85343836 716.05177033 262.65234375 718.0625 C185.40786348 787.05494297 77.86476972 814.50994144 -25.92382812 809.88183594 C-34.65040341 809.33273666 -43.3168113 808.3590796 -51.97265625 807.125 C-52.96861816 806.98578125 -53.96458008 806.8465625 -54.99072266 806.703125 C-61.69956264 805.72975174 -68.33426599 804.49431555 -74.97265625 803.125 C-76.61476074 802.79338867 -76.61476074 802.79338867 -78.29003906 802.45507812 C-138.8363454 789.9981018 -196.54601999 763.59912757 -244.97265625 725.125 C-245.79378906 724.485625 -246.61492187 723.84625 -247.4609375 723.1875 C-249.99253787 721.19868138 -252.48604521 719.16979028 -254.97265625 717.125 C-255.96394531 716.320625 -256.95523438 715.51625 -257.9765625 714.6875 C-267.08596367 707.13059496 -275.46845686 698.84493212 -283.84765625 690.5 C-284.42933563 689.92349701 -285.01101501 689.34699402 -285.61032104 688.75302124 C-292.16674552 682.2425954 -298.40313496 675.67409335 -304.1418457 668.42114258 C-305.79056941 666.35336735 -307.49939606 664.38677558 -309.28515625 662.4375 C-320.48005186 649.70202243 -329.7998233 635.34071741 -338.97265625 621.125 C-339.39111816 620.47772949 -339.80958008 619.83045898 -340.24072266 619.16357422 C-395.44317449 532.85440918 -412.98328043 423.41545298 -391.20703125 316.61767578 C-378.71430264 261.43380292 -355.14719759 207.76738242 -320.37353516 162.93896484 C-319.0513001 161.22683405 -317.74884292 159.50177721 -316.453125 157.76953125 C-308.27162413 146.88004566 -299.51091302 136.3386199 -289.7109375 126.86328125 C-287.95672767 125.10907142 -286.37707596 123.27678242 -284.78515625 121.375 C-280.14519498 115.98289889 -274.8202937 111.31011389 -269.54785156 106.55175781 C-268.15690541 105.29188656 -266.77862053 104.01806719 -265.40234375 102.7421875 C-259.11721998 96.95489531 -252.48343206 91.69239054 -245.72216797 86.48046875 C-244.07853167 85.20702907 -242.44769954 83.91910392 -240.8203125 82.625 C-227.32148784 72.00297404 -212.87225122 62.65633116 -197.97265625 54.125 C-197.19535156 53.67688965 -196.41804687 53.2287793 -195.6171875 52.76708984 C-135.41067623 18.288361 -68.98397892 2.17058734 0 0 Z M-246.73828125 114.07421875 C-248.82432511 115.98885691 -250.94947671 117.84322958 -253.09765625 119.6875 C-257.2548717 123.30721689 -261.11169289 127.19467801 -264.97265625 131.125 C-267.69925739 133.86539507 -270.44241955 136.58712666 -273.20703125 139.2890625 C-280.28682509 146.23760061 -286.84138046 153.3118812 -292.97265625 161.125 C-293.8658244 162.20793285 -294.7618134 163.28854344 -295.66015625 164.3671875 C-308.20619344 179.54066704 -319.26433423 196.00230547 -328.97265625 213.125 C-329.41641602 213.89650391 -329.86017578 214.66800781 -330.31738281 215.46289062 C-372.02723414 288.27887178 -388.88227955 374.97371329 -376.97265625 458.125 C-376.82812012 459.13530273 -376.68358398 460.14560547 -376.53466797 461.18652344 C-375.53923981 467.87341957 -374.32954124 474.50250782 -372.97265625 481.125 C-372.7627002 482.15012695 -372.55274414 483.17525391 -372.33642578 484.23144531 C-368.9218326 500.55305192 -364.40119753 516.36384678 -358.97265625 532.125 C-358.67746094 532.98706055 -358.38226563 533.84912109 -358.078125 534.73730469 C-347.8540341 564.30080042 -333.53731299 593.22304182 -315.97265625 619.125 C-315.30411621 620.11234131 -315.30411621 620.11234131 -314.62207031 621.11962891 C-307.72357052 631.24011162 -300.37266809 640.89125907 -292.50927734 650.27978516 C-291.12055017 651.94740511 -289.7564542 653.6315952 -288.3984375 655.32421875 C-281.43520484 663.86525512 -273.67560291 671.63452724 -265.91015625 679.4375 C-265.35534576 679.99757751 -264.80053528 680.55765503 -264.22891235 681.13470459 C-257.13335754 688.28225061 -249.87324967 694.86572414 -241.97265625 701.125 C-240.94490899 701.98815348 -239.92150177 702.85655827 -238.90625 703.734375 C-164.33373718 767.6870151 -61.84874708 796.20252012 35.12524414 789.10717773 C67.6569489 786.45033133 99.21126969 779.87072572 130.02734375 769.125 C131.28562988 768.6923584 131.28562988 768.6923584 132.56933594 768.25097656 C193.85438885 747.0473874 251.94668905 708.87289263 294.02734375 659.125 C294.80078125 658.24070312 295.57421875 657.35640625 296.37109375 656.4453125 C314.14417663 635.99940952 328.96912425 613.80396161 342.02734375 590.125 C342.50349121 589.26600098 342.97963867 588.40700195 343.47021484 587.52197266 C354.4429081 567.59817117 362.94497402 546.71932518 370.02734375 525.125 C370.31174316 524.27776367 370.59614258 523.43052734 370.88916016 522.55761719 C401.41675713 431.02584732 393.55626095 327.72094373 348.09375 232.15625 C337.94218196 212.00309821 326.41808831 192.67613023 312.44482422 174.92773438 C311.0015987 173.09225776 309.57755487 171.24311225 308.15625 169.390625 C303.42042019 163.24904956 298.5590399 157.30301748 293.29296875 151.6015625 C292.04452597 150.2368854 290.80397257 148.86428562 289.60058594 147.4597168 C284.7414387 141.78901944 279.55543665 136.46692906 274.27685547 131.18920898 C272.78841138 129.69858385 271.30817098 128.20012983 269.828125 126.70117188 C263.55514695 120.39177898 257.00227139 114.66267394 250.02734375 109.125 C248.27451154 107.67007205 246.52418098 106.21212031 244.77734375 104.75 C227.70769733 90.82348961 209.19593773 78.93993193 190.02734375 68.125 C189.31980957 67.72458496 188.61227539 67.32416992 187.88330078 66.91162109 C106.97704183 21.59462561 8.01410527 9.60085428 -246.73828125 114.07421875 Z " fill="#F4F4F4" transform="translate(504.97265625,103.875)"/>
<path d="M0 0 C33.66 0 67.32 0 102 0 C102 7.92 102 15.84 102 24 C98.24625 23.525625 94.4925 23.05125 90.625 22.5625 C89.44244629 22.41498291 88.25989258 22.26746582 87.04150391 22.11547852 C86.11257324 21.99615967 85.18364258 21.87684082 84.2265625 21.75390625 C83.27346191 21.63345947 82.32036133 21.5130127 81.33837891 21.38891602 C79 21 79 21 77 20 C77 18.02 77 16.04 77 14 C60.17 14 43.34 14 26 14 C26 17.3 26 20.6 26 24 C27.2785083 24.16870605 28.5570166 24.33741211 29.87426758 24.51123047 C43.70708214 26.35625764 57.49941435 28.41724482 71.28442383 30.58935547 C74.74960991 31.13477611 78.21558753 31.67496311 81.68164062 32.21484375 C83.89588171 32.56219174 86.1100763 32.90983629 88.32421875 33.2578125 C89.35528244 33.41823029 90.38634613 33.57864807 91.44865417 33.743927 C92.87338799 33.96953812 92.87338799 33.96953812 94.3269043 34.19970703 C95.15989548 34.33055695 95.99288666 34.46140686 96.85112 34.59622192 C99 35 99 35 102 36 C102 47.22 102 58.44 102 70 C68.34 70 34.68 70 0 70 C0 62.41 0 54.82 0 47 C8.58 48.32 17.16 49.64 26 51 C26 52.65 26 54.3 26 56 C42.83 56 59.66 56 77 56 C77 53.03 77 50.06 77 47 C76.1742749 46.87995605 75.3485498 46.75991211 74.49780273 46.63623047 C57.73254833 44.19476661 40.97356374 41.71427054 24.22683716 39.14849854 C22.49555052 38.8833339 20.76416637 38.61880508 19.03268433 38.35491943 C16.59700049 37.98339283 14.16172671 37.60929048 11.7265625 37.234375 C11.00196335 37.12415009 10.2773642 37.01392517 9.5308075 36.90036011 C6.29468566 36.39909261 3.1819962 35.79549905 0 35 C0 23.45 0 11.9 0 0 Z " fill="#FBFBFB" transform="translate(735,501)"/>
<path d="M0 0 C3.52136809 1.40854724 6.62850859 2.79285487 9.9296875 4.58203125 C11.35172485 5.35148071 11.35172485 5.35148071 12.80249023 6.13647461 C13.81641846 6.68956299 14.83034668 7.24265137 15.875 7.8125 C16.93855713 8.3907251 18.00211426 8.9689502 19.09790039 9.56469727 C28.13835937 14.49603887 37.10925155 19.54533609 46.0625 24.6328125 C56.34538564 30.47441115 66.6785386 36.22697922 77 42 C77.33 33.42 77.66 24.84 78 16 C75.03 16 72.06 16 69 16 C69 11.38 69 6.76 69 2 C80.55 2 92.1 2 104 2 C104 25.1 104 48.2 104 72 C77.64867389 72 77.64867389 72 68.3125 65.5 C66.1564157 64.13179883 63.998802 62.76600545 61.83984375 61.40234375 C60.7401123 60.68546387 59.64038086 59.96858398 58.50732422 59.22998047 C52.90968599 55.62240167 47.08077614 52.4035366 41.28012085 49.13720703 C38.25005879 47.42790392 35.23112691 45.69934039 32.2109375 43.97265625 C30.49132812 42.99167969 28.77171875 42.01070312 27 41 C26.67 46.61 26.34 52.22 26 58 C28.64 58 31.28 58 34 58 C34 62.62 34 67.24 34 72 C22.78 72 11.56 72 0 72 C0 48.24 0 24.48 0 0 Z " fill="#FAFAFA" transform="translate(345,499)"/>
<path d="M0 0 C22.77 0 45.54 0 69 0 C73.56967111 9.79215238 78.04951396 19.57743412 82.3125 29.5 C83.15399369 31.45317278 83.99610022 33.40608047 84.83830261 35.35894775 C85.40221032 36.66657569 85.96586188 37.97431412 86.5292511 39.28216553 C88.35764731 43.52334627 90.20430695 47.75613677 92.0625 51.984375 C92.52873779 53.04720703 92.99497559 54.11003906 93.4753418 55.20507812 C94.34902114 57.19458494 95.22537223 59.18292119 96.10473633 61.16992188 C96.48911865 62.04712891 96.87350098 62.92433594 97.26953125 63.828125 C97.60573486 64.5902832 97.94193848 65.35244141 98.28833008 66.13769531 C99 68 99 68 99 70 C90.42 70 81.84 70 73 70 C67.25 58.625 67.25 58.625 65 53 C50.81 52.67 36.62 52.34 22 52 C21.01 54.97 20.02 57.94 19 61 C17.68 63.97 16.36 66.94 15 70 C6.09 70 -2.82 70 -12 70 C-8.03238886 59.34190734 -3.53135242 48.99567878 1.125 38.625 C2.20255446 36.21683271 3.27916172 33.8082443 4.35543823 31.39950562 C5.01897038 29.91537351 5.68339666 28.43164067 6.34890747 26.94839478 C8.27537851 22.64975322 10.15549664 18.33447685 12 14 C8.04 14 4.08 14 0 14 C0 9.38 0 4.76 0 0 Z " fill="#FBFBFB" transform="translate(509,501)"/>
<path d="M0 0 C13.53 0 27.06 0 41 0 C41.33 16.17 41.66 32.34 42 49 C52.28231155 54.796448 52.28231155 54.796448 62.82421875 55.8046875 C63.59946899 55.81830322 64.37471924 55.83191895 65.17346191 55.84594727 C68.01118817 55.88741455 70.84947288 55.87845021 73.6875 55.875 C80.060625 55.91625 86.43375 55.9575 93 56 C93 37.52 93 19.04 93 0 C101.58 0 110.16 0 119 0 C119 23.1 119 46.2 119 70 C101.6640813 70.48130571 101.6640813 70.48130571 94.125 70.5859375 C89.03130244 70.65697267 83.94025345 70.73982961 78.84863281 70.90527344 C59.23512055 71.52578209 42.92022536 71.93051011 26.44021606 59.6572876 C22.79031882 57.17843766 18.85685153 55.1426953 15 53 C15 40.13 15 27.26 15 14 C10.05 14 5.1 14 0 14 C0 9.38 0 4.76 0 0 Z " fill="#FAFAFA" transform="translate(169,501)"/>
<path d="M0 0 C13.2 0 26.4 0 40 0 C40 23.1 40 46.2 40 70 C31.75 70 23.5 70 15 70 C15 51.52 15 33.04 15 14 C10.05 14 5.1 14 0 14 C0 9.38 0 4.76 0 0 Z " fill="#FCFCFC" transform="translate(638,501)"/>
<path d="M0 0 C14.52 0 29.04 0 44 0 C44 9.9 44 19.8 44 30 C29.48 30 14.96 30 0 30 C0 20.1 0 10.2 0 0 Z " fill="#FBFBFB" transform="translate(644,419)"/>
<path d="M0 0 C14.52 0 29.04 0 44 0 C44 9.9 44 19.8 44 30 C29.48 30 14.96 30 0 30 C0 20.1 0 10.2 0 0 Z " fill="#F8F8F8" transform="translate(392,419)"/>
<path d="M0 0 C14.52 0 29.04 0 44 0 C44 4.95 44 9.9 44 15 C40.37 15.66 36.74 16.32 33 17 C36.00939857 21.13792303 39.4970391 24.27853647 43.390625 27.546875 C43.92171875 28.02640625 44.4528125 28.5059375 45 29 C45 29.33 45 29.66 45 30 C31.78063773 31.07184018 31.78063773 31.07184018 27.5859375 28.546875 C25.89822439 26.77737843 24.42773847 24.9829701 23 23 C20.22443934 20.22443934 18.57062666 19.83926446 14.75 19.8125 C13.5125 19.874375 12.275 19.93625 11 20 C11 23.3 11 26.6 11 30 C7.37 30 3.74 30 0 30 C0 27.36 0 24.72 0 22 C-1.98 22.33 -3.96 22.66 -6 23 C-6 21.02 -6 19.04 -6 17 C-4.02 16.67 -2.04 16.34 0 16 C0 10.72 0 5.44 0 0 Z " fill="#FAFAFA" transform="translate(450,419)"/>
<path d="M0 0 C16.83 0 33.66 0 51 0 C51 3.63 51 7.26 51 11 C49.55625 10.855625 48.1125 10.71125 46.625 10.5625 C45.40683594 10.44068359 45.40683594 10.44068359 44.1640625 10.31640625 C42 10 42 10 40 9 C40 8.01 40 7.02 40 6 C32.74 6 25.48 6 18 6 C18 7.98 18 9.96 18 12 C23.94 12 29.88 12 36 12 C36 13.98 36 15.96 36 18 C30.06 18 24.12 18 18 18 C18 19.98 18 21.96 18 24 C25.26 24 32.52 24 40 24 C40 23.01 40 22.02 40 21 C41.4577353 20.664061 42.91621106 20.33133376 44.375 20 C45.18710937 19.814375 45.99921875 19.62875 46.8359375 19.4375 C49 19 49 19 51 19 C51 22.63 51 26.26 51 30 C36.48 30 21.96 30 7 30 C7 22.08 7 14.16 7 6 C4.69 6 2.38 6 0 6 C0 4.02 0 2.04 0 0 Z " fill="#FAFAFA" transform="translate(525,419)"/>
<path d="M0 0 C14.52 0 29.04 0 44 0 C44 3.3 44 6.6 44 10 C38.555 9.505 38.555 9.505 33 9 C33 8.01 33 7.02 33 6 C25.74 6 18.48 6 11 6 C11.33 7.32 11.66 8.64 12 10 C22.56 11.65 33.12 13.3 44 15 C44 19.95 44 24.9 44 30 C29.48 30 14.96 30 0 30 C0 26.7 0 23.4 0 20 C3.63 20.66 7.26 21.32 11 22 C11 22.66 11 23.32 11 24 C18.26 24 25.52 24 33 24 C33 22.68 33 21.36 33 20 C22.11 18.35 11.22 16.7 0 15 C0 10.05 0 5.1 0 0 Z " fill="#FAFAFA" transform="translate(586,419)"/>
<path d="M0 0 C14.19 0 28.38 0 43 0 C43 3.3 43 6.6 43 10 C37.555 9.505 37.555 9.505 32 9 C32 8.01 32 7.02 32 6 C24.74 6 17.48 6 10 6 C10.33 7.32 10.66 8.64 11 10 C21.56 11.65 32.12 13.3 43 15 C43 19.95 43 24.9 43 30 C28.81 30 14.62 30 0 30 C0 26.7 0 23.4 0 20 C4.95 20.99 4.95 20.99 10 22 C10 22.66 10 23.32 10 24 C17.26 24 24.52 24 32 24 C32 22.68 32 21.36 32 20 C31.17274414 19.88406494 30.34548828 19.76812988 29.49316406 19.64868164 C26.41414512 19.21614044 23.33540379 18.78168652 20.25683594 18.34594727 C18.27299386 18.06574767 16.28884207 17.78774372 14.3046875 17.50976562 C12.42910156 17.24389648 12.42910156 17.24389648 10.515625 16.97265625 C9.36352539 16.81031494 8.21142578 16.64797363 7.02441406 16.48071289 C4 16 4 16 0 15 C0 10.05 0 5.1 0 0 Z " fill="#FBFBFB" transform="translate(285,419)"/>
<path d="M0 0 C15.51 0 31.02 0 47 0 C47 3.3 47 6.6 47 10 C39.57142857 10.14285714 39.57142857 10.14285714 36 9 C36 8.01 36 7.02 36 6 C29.73 6 23.46 6 17 6 C17 8.64 17 11.28 17 14 C23.27 14 29.54 14 36 14 C36 15.98 36 17.96 36 20 C29.73 20 23.46 20 17 20 C17 23.3 17 26.6 17 30 C13.7 30 10.4 30 7 30 C7 22.08 7 14.16 7 6 C4.69 6 2.38 6 0 6 C0 4.02 0 2.04 0 0 Z " fill="#FBFBFB" transform="translate(695,419)"/>
<path d="M0 0 C15.84 0 31.68 0 48 0 C48 3.96 48 7.92 48 12 C42.555 11.505 42.555 11.505 37 11 C37 9.35 37 7.7 37 6 C34.36 6 31.72 6 29 6 C29 13.92 29 21.84 29 30 C25.7 30 22.4 30 19 30 C19 22.08 19 14.16 19 6 C16.36 6 13.72 6 11 6 C11 7.32 11 8.64 11 10 C9.5422647 10.335939 8.08378894 10.66866624 6.625 11 C5.40683594 11.2784375 5.40683594 11.2784375 4.1640625 11.5625 C2 12 2 12 0 12 C0 8.04 0 4.08 0 0 Z " fill="#F9F9F9" transform="translate(336,419)"/>
<path d="M0 0 C1.23556641 0.01740234 1.23556641 0.01740234 2.49609375 0.03515625 C3.32238281 0.04417969 4.14867187 0.05320312 5 0.0625 C5.63808594 0.07410156 6.27617188 0.08570313 6.93359375 0.09765625 C8.20960706 2.59512648 9.47945546 5.09543561 10.74609375 7.59765625 C11.10251953 8.29375 11.45894531 8.98984375 11.82617188 9.70703125 C12.17744141 10.403125 12.52871094 11.09921875 12.890625 11.81640625 C13.3697937 12.7590332 13.3697937 12.7590332 13.85864258 13.72070312 C15.38991194 17.10667599 16.62877453 20.61813833 17.93359375 24.09765625 C8.03359375 24.09765625 -1.86640625 24.09765625 -12.06640625 24.09765625 C-11.33465958 20.43892288 -10.72367827 17.98473996 -9.25390625 14.70703125 C-8.90070312 13.91554688 -8.5475 13.1240625 -8.18359375 12.30859375 C-7.63058594 11.09042969 -7.63058594 11.09042969 -7.06640625 9.84765625 C-6.51339844 8.60628906 -6.51339844 8.60628906 -5.94921875 7.33984375 C-2.70982905 0.12806375 -2.70982905 0.12806375 0 0 Z " fill="#050505" transform="translate(550.06640625,514.90234375)"/>
<path d="M0 0 C7.59 0 15.18 0 23 0 C23 5.94 23 11.88 23 18 C15.41 18 7.82 18 0 18 C0 12.06 0 6.12 0 0 Z " fill="#080808" transform="translate(403,425)"/>
<path d="M0 0 C7.26 0 14.52 0 22 0 C22 5.94 22 11.88 22 18 C14.74 18 7.48 18 0 18 C0 12.06 0 6.12 0 0 Z " fill="#030303" transform="translate(655,425)"/>
<path d="M0 0 C5.61 0 11.22 0 17 0 C17 9.9 17 19.8 17 30 C13.37 30 9.74 30 6 30 C6 22.08 6 14.16 6 6 C4.02 6 2.04 6 0 6 C0 4.02 0 2.04 0 0 Z " fill="#FAFAFA" transform="translate(501,419)"/>
<path d="M0 0 C7.26 0 14.52 0 22 0 C21.67 1.65 21.34 3.3 21 5 C10.605 6.485 10.605 6.485 0 8 C0 5.36 0 2.72 0 0 Z " fill="#0B0B0B" transform="translate(461,425)"/>
<path d="M0 0 C0.66 0.33 1.32 0.66 2 1 C-8.23 11.23 -18.46 21.46 -29 32 C-29.66 31.67 -30.32 31.34 -31 31 C-30.25556641 30.27296875 -30.25556641 30.27296875 -29.49609375 29.53125 C-26.12677652 26.20668651 -22.84971976 22.88245379 -19.8125 19.25 C-15.56923251 14.2978804 -10.71305729 10.01043581 -5.890625 5.63671875 C-3.87236841 3.79574146 -1.89969756 1.95989925 0 0 Z " fill="#9E9E9E" transform="translate(240,206)"/>
</svg>
